<?xml version="1.0" standalone="no"?><!DOCTYPE svg PUBLIC "-//W3C//DTD SVG 1.1//EN" "http://www.w3.org/Graphics/SVG/1.1/DTD/svg11.dtd"><svg class="icon" height="512" viewBox="0 0 1024 1024" version="1.1" xmlns="http://www.w3.org/2000/svg"><path d="M510.08 70.976c248.64 0 449.152 200.448 449.152 447.616a448.448 448.448 0 0 1-449.152 449.28c-247.168 0-447.616-200.576-447.616-449.28A447.68 447.68 0 0 1 510.08 70.976z" fill="#EB6464" /><path d="M342.208 605.568h177.216v107.328H342.208zM455.68 481.344l63.744 63.616v42.048H342.208V543.36c0-48.128 18.688-93.184 46.656-128.96L455.68 481.344zM545.792 341.376h24.896v175.616h-24.896a25.792 25.792 0 0 0-18.688 7.808l-57.472-57.536-66.816-66.816 14.016-14.016a206.208 206.208 0 0 1 128.96-45.056zM589.312 341.376h100.992v175.616H589.312z" fill="#FFFFFF" /><path d="M520.96 664.704H342.208l-55.936 29.568v18.624H575.36v-18.624zM673.344 339.84v178.752l29.376 56h17.216V285.44h-17.216z" fill="#FFFFFF" /></svg>